<mxfile host="Electron" modified="2024-05-10T16:00:19.897Z" agent="Mozilla/5.0 (X11; Linux x86_64) AppleWebKit/537.36 (KHTML, like Gecko) draw.io/24.2.5 Chrome/122.0.6261.156 Electron/29.3.0 Safari/537.36" etag="5fSbPProbctvcpOEg29C" version="24.2.5" type="device">
  <diagram name="Page-1" id="4Ylcxh_aXTkbXbBuXBTT">
    <mxGraphModel dx="1011" dy="610" grid="1" gridSize="10" guides="1" tooltips="1" connect="1" arrows="1" fold="1" page="1" pageScale="1" pageWidth="850" pageHeight="1100" math="1" shadow="0">
      <root>
        <mxCell id="0" />
        <mxCell id="1" parent="0" />
        <mxCell id="3y3G5SFOzN9zngdh48nE-2" value="" style="ellipse;whiteSpace=wrap;html=1;aspect=fixed;" parent="1" vertex="1">
          <mxGeometry x="170" y="310" width="20" height="20" as="geometry" />
        </mxCell>
        <mxCell id="3y3G5SFOzN9zngdh48nE-3" value="" style="ellipse;whiteSpace=wrap;html=1;aspect=fixed;" parent="1" vertex="1">
          <mxGeometry x="170" y="350" width="20" height="20" as="geometry" />
        </mxCell>
        <mxCell id="3y3G5SFOzN9zngdh48nE-4" value="" style="ellipse;whiteSpace=wrap;html=1;aspect=fixed;" parent="1" vertex="1">
          <mxGeometry x="170" y="390" width="20" height="20" as="geometry" />
        </mxCell>
        <mxCell id="3y3G5SFOzN9zngdh48nE-5" value="" style="ellipse;whiteSpace=wrap;html=1;aspect=fixed;" parent="1" vertex="1">
          <mxGeometry x="170" y="430" width="20" height="20" as="geometry" />
        </mxCell>
        <mxCell id="3y3G5SFOzN9zngdh48nE-9" value="" style="ellipse;whiteSpace=wrap;html=1;aspect=fixed;" parent="1" vertex="1">
          <mxGeometry x="510" y="310" width="20" height="20" as="geometry" />
        </mxCell>
        <mxCell id="3y3G5SFOzN9zngdh48nE-10" value="" style="ellipse;whiteSpace=wrap;html=1;aspect=fixed;" parent="1" vertex="1">
          <mxGeometry x="510" y="350" width="20" height="20" as="geometry" />
        </mxCell>
        <mxCell id="3y3G5SFOzN9zngdh48nE-11" value="" style="ellipse;whiteSpace=wrap;html=1;aspect=fixed;" parent="1" vertex="1">
          <mxGeometry x="510" y="390" width="20" height="20" as="geometry" />
        </mxCell>
        <mxCell id="3y3G5SFOzN9zngdh48nE-12" value="" style="ellipse;whiteSpace=wrap;html=1;aspect=fixed;" parent="1" vertex="1">
          <mxGeometry x="510" y="430" width="20" height="20" as="geometry" />
        </mxCell>
        <mxCell id="3y3G5SFOzN9zngdh48nE-13" value="`X_0`" style="text;html=1;align=center;verticalAlign=middle;whiteSpace=wrap;rounded=0;fontSize=16;" parent="1" vertex="1">
          <mxGeometry x="530" y="305" width="60" height="30" as="geometry" />
        </mxCell>
        <mxCell id="3y3G5SFOzN9zngdh48nE-14" value="`X_1`" style="text;html=1;align=center;verticalAlign=middle;whiteSpace=wrap;rounded=0;fontSize=16;" parent="1" vertex="1">
          <mxGeometry x="530" y="345" width="60" height="30" as="geometry" />
        </mxCell>
        <mxCell id="3y3G5SFOzN9zngdh48nE-15" value="`X_2`" style="text;html=1;align=center;verticalAlign=middle;whiteSpace=wrap;rounded=0;fontSize=16;" parent="1" vertex="1">
          <mxGeometry x="530" y="385" width="60" height="30" as="geometry" />
        </mxCell>
        <mxCell id="3y3G5SFOzN9zngdh48nE-16" value="`X_3`" style="text;html=1;align=center;verticalAlign=middle;whiteSpace=wrap;rounded=0;fontSize=16;" parent="1" vertex="1">
          <mxGeometry x="530" y="425" width="60" height="30" as="geometry" />
        </mxCell>
        <mxCell id="3y3G5SFOzN9zngdh48nE-23" value="" style="endArrow=none;html=1;rounded=0;exitX=1;exitY=0.5;exitDx=0;exitDy=0;entryX=0;entryY=0.5;entryDx=0;entryDy=0;" parent="1" source="3y3G5SFOzN9zngdh48nE-28" edge="1">
          <mxGeometry width="50" height="50" relative="1" as="geometry">
            <mxPoint x="90" y="399.5" as="sourcePoint" />
            <mxPoint x="510" y="399.5" as="targetPoint" />
          </mxGeometry>
        </mxCell>
        <mxCell id="3y3G5SFOzN9zngdh48nE-24" value="" style="endArrow=none;html=1;rounded=0;exitX=1;exitY=0.5;exitDx=0;exitDy=0;entryX=0;entryY=0.5;entryDx=0;entryDy=0;" parent="1" source="3y3G5SFOzN9zngdh48nE-29" edge="1">
          <mxGeometry width="50" height="50" relative="1" as="geometry">
            <mxPoint x="90" y="439.5" as="sourcePoint" />
            <mxPoint x="510" y="439.5" as="targetPoint" />
          </mxGeometry>
        </mxCell>
        <mxCell id="3y3G5SFOzN9zngdh48nE-29" value="" style="ellipse;whiteSpace=wrap;html=1;aspect=fixed;fillColor=#000000;" parent="1" vertex="1">
          <mxGeometry x="250" y="430" width="20" height="20" as="geometry" />
        </mxCell>
        <mxCell id="3y3G5SFOzN9zngdh48nE-28" value="" style="ellipse;whiteSpace=wrap;html=1;aspect=fixed;fillColor=#000000;" parent="1" vertex="1">
          <mxGeometry x="250" y="390" width="20" height="20" as="geometry" />
        </mxCell>
        <mxCell id="3y3G5SFOzN9zngdh48nE-25" value="" style="ellipse;whiteSpace=wrap;html=1;aspect=fixed;fillColor=#000000;" parent="1" vertex="1">
          <mxGeometry x="250" y="350" width="20" height="20" as="geometry" />
        </mxCell>
        <mxCell id="3y3G5SFOzN9zngdh48nE-35" value="" style="ellipse;whiteSpace=wrap;html=1;aspect=fixed;fillColor=#000000;" parent="1" vertex="1">
          <mxGeometry x="250" y="310" width="20" height="20" as="geometry" />
        </mxCell>
        <mxCell id="3y3G5SFOzN9zngdh48nE-44" value="" style="ellipse;whiteSpace=wrap;html=1;aspect=fixed;" parent="1" vertex="1">
          <mxGeometry x="510" y="530" width="20" height="20" as="geometry" />
        </mxCell>
        <mxCell id="3y3G5SFOzN9zngdh48nE-45" value="" style="ellipse;whiteSpace=wrap;html=1;aspect=fixed;" parent="1" vertex="1">
          <mxGeometry x="510" y="570" width="20" height="20" as="geometry" />
        </mxCell>
        <mxCell id="3y3G5SFOzN9zngdh48nE-46" value="" style="ellipse;whiteSpace=wrap;html=1;aspect=fixed;" parent="1" vertex="1">
          <mxGeometry x="510" y="610" width="20" height="20" as="geometry" />
        </mxCell>
        <mxCell id="3y3G5SFOzN9zngdh48nE-47" value="" style="ellipse;whiteSpace=wrap;html=1;aspect=fixed;" parent="1" vertex="1">
          <mxGeometry x="510" y="650" width="20" height="20" as="geometry" />
        </mxCell>
        <mxCell id="3y3G5SFOzN9zngdh48nE-48" value="`X_4`" style="text;html=1;align=center;verticalAlign=middle;whiteSpace=wrap;rounded=0;fontSize=16;" parent="1" vertex="1">
          <mxGeometry x="530" y="525" width="60" height="30" as="geometry" />
        </mxCell>
        <mxCell id="3y3G5SFOzN9zngdh48nE-49" value="`X_5`" style="text;html=1;align=center;verticalAlign=middle;whiteSpace=wrap;rounded=0;fontSize=16;" parent="1" vertex="1">
          <mxGeometry x="530" y="565" width="60" height="30" as="geometry" />
        </mxCell>
        <mxCell id="3y3G5SFOzN9zngdh48nE-50" value="`X_6`" style="text;html=1;align=center;verticalAlign=middle;whiteSpace=wrap;rounded=0;fontSize=16;" parent="1" vertex="1">
          <mxGeometry x="530" y="605" width="60" height="30" as="geometry" />
        </mxCell>
        <mxCell id="3y3G5SFOzN9zngdh48nE-51" value="`X_7`" style="text;html=1;align=center;verticalAlign=middle;whiteSpace=wrap;rounded=0;fontSize=16;" parent="1" vertex="1">
          <mxGeometry x="530" y="645" width="60" height="30" as="geometry" />
        </mxCell>
        <mxCell id="3y3G5SFOzN9zngdh48nE-57" value="" style="endArrow=none;html=1;rounded=0;exitX=1;exitY=0.5;exitDx=0;exitDy=0;entryX=0;entryY=0.5;entryDx=0;entryDy=0;" parent="1" edge="1" source="ipbtVaRbRTqN4IjZGnwu-28">
          <mxGeometry width="50" height="50" relative="1" as="geometry">
            <mxPoint x="270" y="580" as="sourcePoint" />
            <mxPoint x="510" y="579.5" as="targetPoint" />
          </mxGeometry>
        </mxCell>
        <mxCell id="3y3G5SFOzN9zngdh48nE-58" value="" style="endArrow=none;html=1;rounded=0;exitX=1;exitY=0.5;exitDx=0;exitDy=0;entryX=0;entryY=0.5;entryDx=0;entryDy=0;" parent="1" edge="1" source="ipbtVaRbRTqN4IjZGnwu-29">
          <mxGeometry width="50" height="50" relative="1" as="geometry">
            <mxPoint x="270" y="620" as="sourcePoint" />
            <mxPoint x="510" y="619.5" as="targetPoint" />
          </mxGeometry>
        </mxCell>
        <mxCell id="3y3G5SFOzN9zngdh48nE-59" value="" style="endArrow=none;html=1;rounded=0;exitX=1;exitY=0.5;exitDx=0;exitDy=0;entryX=0;entryY=0.5;entryDx=0;entryDy=0;" parent="1" edge="1" source="ipbtVaRbRTqN4IjZGnwu-30">
          <mxGeometry width="50" height="50" relative="1" as="geometry">
            <mxPoint x="270" y="660" as="sourcePoint" />
            <mxPoint x="510" y="659.5" as="targetPoint" />
          </mxGeometry>
        </mxCell>
        <mxCell id="3y3G5SFOzN9zngdh48nE-74" value="" style="endArrow=none;html=1;rounded=0;exitX=1;exitY=0;exitDx=0;exitDy=0;entryX=0;entryY=1;entryDx=0;entryDy=0;" parent="1" edge="1">
          <mxGeometry width="50" height="50" relative="1" as="geometry">
            <mxPoint x="267.0710678118654" y="532.9289321881345" as="sourcePoint" />
            <mxPoint x="432.9289321881347" y="327.0710678118654" as="targetPoint" />
          </mxGeometry>
        </mxCell>
        <mxCell id="3y3G5SFOzN9zngdh48nE-75" value="" style="endArrow=none;html=1;rounded=0;exitX=1;exitY=0;exitDx=0;exitDy=0;entryX=0;entryY=1;entryDx=0;entryDy=0;" parent="1" edge="1">
          <mxGeometry width="50" height="50" relative="1" as="geometry">
            <mxPoint x="269.93" y="575.93" as="sourcePoint" />
            <mxPoint x="435.93" y="369.93" as="targetPoint" />
          </mxGeometry>
        </mxCell>
        <mxCell id="3y3G5SFOzN9zngdh48nE-76" value="" style="endArrow=none;html=1;rounded=0;exitX=1;exitY=0;exitDx=0;exitDy=0;entryX=0;entryY=1;entryDx=0;entryDy=0;" parent="1" edge="1">
          <mxGeometry width="50" height="50" relative="1" as="geometry">
            <mxPoint x="270" y="616" as="sourcePoint" />
            <mxPoint x="436" y="410" as="targetPoint" />
          </mxGeometry>
        </mxCell>
        <mxCell id="3y3G5SFOzN9zngdh48nE-77" value="" style="endArrow=none;html=1;rounded=0;exitX=1;exitY=0;exitDx=0;exitDy=0;entryX=0;entryY=1;entryDx=0;entryDy=0;" parent="1" edge="1">
          <mxGeometry width="50" height="50" relative="1" as="geometry">
            <mxPoint x="270" y="656" as="sourcePoint" />
            <mxPoint x="436" y="450" as="targetPoint" />
          </mxGeometry>
        </mxCell>
        <mxCell id="3y3G5SFOzN9zngdh48nE-78" value="" style="endArrow=none;html=1;rounded=0;exitX=0;exitY=0;exitDx=0;exitDy=0;entryX=1;entryY=1;entryDx=0;entryDy=0;strokeColor=#CCCCCC;" parent="1" source="ipbtVaRbRTqN4IjZGnwu-44" target="3y3G5SFOzN9zngdh48nE-35" edge="1">
          <mxGeometry width="50" height="50" relative="1" as="geometry">
            <mxPoint x="432.7824855787137" y="532.7824855787137" as="sourcePoint" />
            <mxPoint x="270" y="320" as="targetPoint" />
          </mxGeometry>
        </mxCell>
        <mxCell id="3y3G5SFOzN9zngdh48nE-79" value="" style="endArrow=none;html=1;rounded=0;exitX=0;exitY=0;exitDx=0;exitDy=0;entryX=1;entryY=1;entryDx=0;entryDy=0;strokeColor=#CCCCCC;" parent="1" edge="1">
          <mxGeometry width="50" height="50" relative="1" as="geometry">
            <mxPoint x="434" y="573" as="sourcePoint" />
            <mxPoint x="268" y="367" as="targetPoint" />
          </mxGeometry>
        </mxCell>
        <mxCell id="3y3G5SFOzN9zngdh48nE-80" value="" style="endArrow=none;html=1;rounded=0;exitX=0;exitY=0;exitDx=0;exitDy=0;entryX=1;entryY=1;entryDx=0;entryDy=0;strokeColor=#CCCCCC;" parent="1" edge="1" source="ipbtVaRbRTqN4IjZGnwu-42">
          <mxGeometry width="50" height="50" relative="1" as="geometry">
            <mxPoint x="436" y="610" as="sourcePoint" />
            <mxPoint x="270" y="404" as="targetPoint" />
          </mxGeometry>
        </mxCell>
        <mxCell id="3y3G5SFOzN9zngdh48nE-81" value="" style="endArrow=none;html=1;rounded=0;exitX=0;exitY=0;exitDx=0;exitDy=0;entryX=1;entryY=1;entryDx=0;entryDy=0;strokeColor=#CCCCCC;" parent="1" edge="1">
          <mxGeometry width="50" height="50" relative="1" as="geometry">
            <mxPoint x="433" y="653" as="sourcePoint" />
            <mxPoint x="267" y="447" as="targetPoint" />
          </mxGeometry>
        </mxCell>
        <mxCell id="3y3G5SFOzN9zngdh48nE-94" value="" style="endArrow=none;html=1;rounded=0;entryX=0;entryY=0.5;entryDx=0;entryDy=0;" parent="1" target="3y3G5SFOzN9zngdh48nE-9" edge="1" source="ipbtVaRbRTqN4IjZGnwu-36">
          <mxGeometry width="50" height="50" relative="1" as="geometry">
            <mxPoint x="270" y="320" as="sourcePoint" />
            <mxPoint x="350" y="480" as="targetPoint" />
          </mxGeometry>
        </mxCell>
        <mxCell id="3y3G5SFOzN9zngdh48nE-95" value="" style="endArrow=none;html=1;rounded=0;entryX=0;entryY=0.5;entryDx=0;entryDy=0;" parent="1" edge="1">
          <mxGeometry width="50" height="50" relative="1" as="geometry">
            <mxPoint x="270" y="360" as="sourcePoint" />
            <mxPoint x="510" y="359.5" as="targetPoint" />
          </mxGeometry>
        </mxCell>
        <mxCell id="3y3G5SFOzN9zngdh48nE-96" value="" style="endArrow=none;html=1;rounded=0;entryX=0;entryY=0.5;entryDx=0;entryDy=0;" parent="1" edge="1">
          <mxGeometry width="50" height="50" relative="1" as="geometry">
            <mxPoint x="280" y="440" as="sourcePoint" />
            <mxPoint x="510" y="439.5" as="targetPoint" />
          </mxGeometry>
        </mxCell>
        <mxCell id="3y3G5SFOzN9zngdh48nE-97" value="" style="endArrow=none;html=1;rounded=0;entryX=0;entryY=0.5;entryDx=0;entryDy=0;" parent="1" edge="1">
          <mxGeometry width="50" height="50" relative="1" as="geometry">
            <mxPoint x="270" y="400" as="sourcePoint" />
            <mxPoint x="504" y="399.5" as="targetPoint" />
          </mxGeometry>
        </mxCell>
        <mxCell id="3y3G5SFOzN9zngdh48nE-109" value="" style="ellipse;whiteSpace=wrap;html=1;aspect=fixed;" parent="1" vertex="1">
          <mxGeometry x="170" y="530" width="20" height="20" as="geometry" />
        </mxCell>
        <mxCell id="3y3G5SFOzN9zngdh48nE-110" value="" style="ellipse;whiteSpace=wrap;html=1;aspect=fixed;" parent="1" vertex="1">
          <mxGeometry x="170" y="570" width="20" height="20" as="geometry" />
        </mxCell>
        <mxCell id="3y3G5SFOzN9zngdh48nE-111" value="" style="ellipse;whiteSpace=wrap;html=1;aspect=fixed;" parent="1" vertex="1">
          <mxGeometry x="170" y="610" width="20" height="20" as="geometry" />
        </mxCell>
        <mxCell id="3y3G5SFOzN9zngdh48nE-112" value="" style="ellipse;whiteSpace=wrap;html=1;aspect=fixed;" parent="1" vertex="1">
          <mxGeometry x="170" y="650" width="20" height="20" as="geometry" />
        </mxCell>
        <mxCell id="3y3G5SFOzN9zngdh48nE-116" value="" style="ellipse;whiteSpace=wrap;html=1;aspect=fixed;fillColor=#000000;" parent="1" vertex="1">
          <mxGeometry x="250" y="650" width="19" height="19" as="geometry" />
        </mxCell>
        <mxCell id="3y3G5SFOzN9zngdh48nE-118" value="" style="ellipse;whiteSpace=wrap;html=1;aspect=fixed;fillColor=#000000;" parent="1" vertex="1">
          <mxGeometry x="250" y="610" width="19" height="19" as="geometry" />
        </mxCell>
        <mxCell id="3y3G5SFOzN9zngdh48nE-120" value="" style="ellipse;whiteSpace=wrap;html=1;aspect=fixed;fillColor=#000000;" parent="1" vertex="1">
          <mxGeometry x="250" y="570" width="19" height="19" as="geometry" />
        </mxCell>
        <mxCell id="3y3G5SFOzN9zngdh48nE-121" value="" style="ellipse;whiteSpace=wrap;html=1;aspect=fixed;fillColor=#000000;" parent="1" vertex="1">
          <mxGeometry x="250" y="530" width="19" height="19" as="geometry" />
        </mxCell>
        <mxCell id="3y3G5SFOzN9zngdh48nE-82" value="`W_8^0`" style="text;html=1;align=center;verticalAlign=middle;whiteSpace=wrap;rounded=0;fontSize=12;" parent="1" vertex="1">
          <mxGeometry x="194" y="505" width="60" height="30" as="geometry" />
        </mxCell>
        <mxCell id="3y3G5SFOzN9zngdh48nE-84" value="`W_8^2`" style="text;html=1;align=center;verticalAlign=middle;whiteSpace=wrap;rounded=0;fontSize=12;" parent="1" vertex="1">
          <mxGeometry x="194" y="588" width="60" height="30" as="geometry" />
        </mxCell>
        <mxCell id="3y3G5SFOzN9zngdh48nE-85" value="`W_8^3`" style="text;html=1;align=center;verticalAlign=middle;whiteSpace=wrap;rounded=0;fontSize=12;" parent="1" vertex="1">
          <mxGeometry x="194" y="628" width="60" height="30" as="geometry" />
        </mxCell>
        <mxCell id="3y3G5SFOzN9zngdh48nE-83" value="`W_8^1`" style="text;html=1;align=center;verticalAlign=middle;whiteSpace=wrap;rounded=0;fontSize=12;" parent="1" vertex="1">
          <mxGeometry x="194" y="548" width="60" height="30" as="geometry" />
        </mxCell>
        <mxCell id="ipbtVaRbRTqN4IjZGnwu-1" value="" style="endArrow=none;html=1;rounded=0;entryX=0;entryY=0.5;entryDx=0;entryDy=0;exitX=1;exitY=0.5;exitDx=0;exitDy=0;" edge="1" parent="1" source="3y3G5SFOzN9zngdh48nE-2" target="3y3G5SFOzN9zngdh48nE-35">
          <mxGeometry width="50" height="50" relative="1" as="geometry">
            <mxPoint x="250" y="310" as="sourcePoint" />
            <mxPoint x="490" y="310" as="targetPoint" />
          </mxGeometry>
        </mxCell>
        <mxCell id="ipbtVaRbRTqN4IjZGnwu-2" value="" style="endArrow=none;html=1;rounded=0;entryX=0;entryY=0.5;entryDx=0;entryDy=0;exitX=1;exitY=0.5;exitDx=0;exitDy=0;" edge="1" parent="1">
          <mxGeometry width="50" height="50" relative="1" as="geometry">
            <mxPoint x="190" y="359.58" as="sourcePoint" />
            <mxPoint x="250" y="359.58" as="targetPoint" />
          </mxGeometry>
        </mxCell>
        <mxCell id="ipbtVaRbRTqN4IjZGnwu-3" value="" style="endArrow=none;html=1;rounded=0;entryX=0;entryY=0.5;entryDx=0;entryDy=0;exitX=1;exitY=0.5;exitDx=0;exitDy=0;" edge="1" parent="1">
          <mxGeometry width="50" height="50" relative="1" as="geometry">
            <mxPoint x="190" y="399.58" as="sourcePoint" />
            <mxPoint x="250" y="399.58" as="targetPoint" />
          </mxGeometry>
        </mxCell>
        <mxCell id="ipbtVaRbRTqN4IjZGnwu-4" value="" style="endArrow=none;html=1;rounded=0;entryX=0;entryY=0.5;entryDx=0;entryDy=0;exitX=1;exitY=0.5;exitDx=0;exitDy=0;" edge="1" parent="1">
          <mxGeometry width="50" height="50" relative="1" as="geometry">
            <mxPoint x="190" y="439.58" as="sourcePoint" />
            <mxPoint x="250" y="439.58" as="targetPoint" />
          </mxGeometry>
        </mxCell>
        <mxCell id="ipbtVaRbRTqN4IjZGnwu-5" value="" style="endArrow=none;html=1;rounded=0;entryX=0;entryY=0.5;entryDx=0;entryDy=0;exitX=1;exitY=0.5;exitDx=0;exitDy=0;" edge="1" parent="1" source="ipbtVaRbRTqN4IjZGnwu-13">
          <mxGeometry width="50" height="50" relative="1" as="geometry">
            <mxPoint x="190" y="540" as="sourcePoint" />
            <mxPoint x="250" y="540" as="targetPoint" />
          </mxGeometry>
        </mxCell>
        <mxCell id="ipbtVaRbRTqN4IjZGnwu-6" value="" style="endArrow=none;html=1;rounded=0;entryX=0;entryY=0.5;entryDx=0;entryDy=0;exitX=1;exitY=0.5;exitDx=0;exitDy=0;" edge="1" parent="1" source="ipbtVaRbRTqN4IjZGnwu-16">
          <mxGeometry width="50" height="50" relative="1" as="geometry">
            <mxPoint x="190" y="579.5799999999999" as="sourcePoint" />
            <mxPoint x="250" y="579.5799999999999" as="targetPoint" />
          </mxGeometry>
        </mxCell>
        <mxCell id="ipbtVaRbRTqN4IjZGnwu-7" value="" style="endArrow=none;html=1;rounded=0;entryX=0;entryY=0.5;entryDx=0;entryDy=0;exitX=1;exitY=0.5;exitDx=0;exitDy=0;" edge="1" parent="1" source="ipbtVaRbRTqN4IjZGnwu-19">
          <mxGeometry width="50" height="50" relative="1" as="geometry">
            <mxPoint x="190" y="619.5799999999999" as="sourcePoint" />
            <mxPoint x="250" y="619.5799999999999" as="targetPoint" />
          </mxGeometry>
        </mxCell>
        <mxCell id="ipbtVaRbRTqN4IjZGnwu-8" value="" style="endArrow=none;html=1;rounded=0;entryX=0;entryY=0.5;entryDx=0;entryDy=0;exitX=1;exitY=0.5;exitDx=0;exitDy=0;" edge="1" parent="1">
          <mxGeometry width="50" height="50" relative="1" as="geometry">
            <mxPoint x="190" y="659.5799999999999" as="sourcePoint" />
            <mxPoint x="250" y="659.5799999999999" as="targetPoint" />
          </mxGeometry>
        </mxCell>
        <mxCell id="ipbtVaRbRTqN4IjZGnwu-11" value="" style="endArrow=none;html=1;rounded=0;exitX=1;exitY=0.5;exitDx=0;exitDy=0;entryX=0;entryY=0.5;entryDx=0;entryDy=0;" edge="1" parent="1">
          <mxGeometry width="50" height="50" relative="1" as="geometry">
            <mxPoint x="270" y="540.08" as="sourcePoint" />
            <mxPoint x="510" y="539.58" as="targetPoint" />
          </mxGeometry>
        </mxCell>
        <mxCell id="ipbtVaRbRTqN4IjZGnwu-14" value="" style="endArrow=none;html=1;rounded=0;entryX=0;entryY=0.5;entryDx=0;entryDy=0;exitX=1;exitY=0.5;exitDx=0;exitDy=0;" edge="1" parent="1" target="ipbtVaRbRTqN4IjZGnwu-13">
          <mxGeometry width="50" height="50" relative="1" as="geometry">
            <mxPoint x="190" y="540" as="sourcePoint" />
            <mxPoint x="250" y="540" as="targetPoint" />
          </mxGeometry>
        </mxCell>
        <mxCell id="ipbtVaRbRTqN4IjZGnwu-13" value="" style="shape=sumEllipse;perimeter=ellipsePerimeter;whiteSpace=wrap;html=1;backgroundOutline=1;" vertex="1" parent="1">
          <mxGeometry x="213" y="532" width="16" height="16" as="geometry" />
        </mxCell>
        <mxCell id="ipbtVaRbRTqN4IjZGnwu-17" value="" style="endArrow=none;html=1;rounded=0;entryX=0;entryY=0.5;entryDx=0;entryDy=0;exitX=1;exitY=0.5;exitDx=0;exitDy=0;" edge="1" parent="1" target="ipbtVaRbRTqN4IjZGnwu-16">
          <mxGeometry width="50" height="50" relative="1" as="geometry">
            <mxPoint x="190" y="579.5799999999999" as="sourcePoint" />
            <mxPoint x="250" y="579.5799999999999" as="targetPoint" />
          </mxGeometry>
        </mxCell>
        <mxCell id="ipbtVaRbRTqN4IjZGnwu-16" value="" style="shape=sumEllipse;perimeter=ellipsePerimeter;whiteSpace=wrap;html=1;backgroundOutline=1;" vertex="1" parent="1">
          <mxGeometry x="213" y="572" width="16" height="16" as="geometry" />
        </mxCell>
        <mxCell id="ipbtVaRbRTqN4IjZGnwu-20" value="" style="endArrow=none;html=1;rounded=0;entryX=0;entryY=0.5;entryDx=0;entryDy=0;exitX=1;exitY=0.5;exitDx=0;exitDy=0;" edge="1" parent="1" target="ipbtVaRbRTqN4IjZGnwu-19">
          <mxGeometry width="50" height="50" relative="1" as="geometry">
            <mxPoint x="190" y="619.5799999999999" as="sourcePoint" />
            <mxPoint x="250" y="619.5799999999999" as="targetPoint" />
          </mxGeometry>
        </mxCell>
        <mxCell id="ipbtVaRbRTqN4IjZGnwu-19" value="" style="shape=sumEllipse;perimeter=ellipsePerimeter;whiteSpace=wrap;html=1;backgroundOutline=1;" vertex="1" parent="1">
          <mxGeometry x="213" y="612" width="16" height="16" as="geometry" />
        </mxCell>
        <mxCell id="ipbtVaRbRTqN4IjZGnwu-21" value="" style="shape=sumEllipse;perimeter=ellipsePerimeter;whiteSpace=wrap;html=1;backgroundOutline=1;" vertex="1" parent="1">
          <mxGeometry x="213" y="652" width="16" height="16" as="geometry" />
        </mxCell>
        <mxCell id="ipbtVaRbRTqN4IjZGnwu-25" value="" style="endArrow=none;html=1;rounded=0;entryX=0;entryY=0.5;entryDx=0;entryDy=0;exitX=1;exitY=0.5;exitDx=0;exitDy=0;" edge="1" source="ipbtVaRbRTqN4IjZGnwu-28" parent="1">
          <mxGeometry width="50" height="50" relative="1" as="geometry">
            <mxPoint x="385" y="579.5799999999999" as="sourcePoint" />
            <mxPoint x="445" y="579.5799999999999" as="targetPoint" />
          </mxGeometry>
        </mxCell>
        <mxCell id="ipbtVaRbRTqN4IjZGnwu-26" value="" style="endArrow=none;html=1;rounded=0;entryX=0;entryY=0.5;entryDx=0;entryDy=0;exitX=1;exitY=0.5;exitDx=0;exitDy=0;" edge="1" source="ipbtVaRbRTqN4IjZGnwu-29" parent="1">
          <mxGeometry width="50" height="50" relative="1" as="geometry">
            <mxPoint x="385" y="619.5799999999999" as="sourcePoint" />
            <mxPoint x="445" y="619.5799999999999" as="targetPoint" />
          </mxGeometry>
        </mxCell>
        <mxCell id="ipbtVaRbRTqN4IjZGnwu-37" value="" style="endArrow=none;html=1;rounded=0;entryX=0;entryY=0.5;entryDx=0;entryDy=0;" edge="1" parent="1" target="ipbtVaRbRTqN4IjZGnwu-36">
          <mxGeometry width="50" height="50" relative="1" as="geometry">
            <mxPoint x="270" y="320" as="sourcePoint" />
            <mxPoint x="510" y="320" as="targetPoint" />
          </mxGeometry>
        </mxCell>
        <mxCell id="ipbtVaRbRTqN4IjZGnwu-36" value="" style="shape=orEllipse;perimeter=ellipsePerimeter;whiteSpace=wrap;html=1;backgroundOutline=1;" vertex="1" parent="1">
          <mxGeometry x="430" y="310" width="20" height="20" as="geometry" />
        </mxCell>
        <mxCell id="ipbtVaRbRTqN4IjZGnwu-38" value="" style="shape=orEllipse;perimeter=ellipsePerimeter;whiteSpace=wrap;html=1;backgroundOutline=1;" vertex="1" parent="1">
          <mxGeometry x="430" y="350" width="20" height="20" as="geometry" />
        </mxCell>
        <mxCell id="ipbtVaRbRTqN4IjZGnwu-39" value="" style="shape=orEllipse;perimeter=ellipsePerimeter;whiteSpace=wrap;html=1;backgroundOutline=1;" vertex="1" parent="1">
          <mxGeometry x="429.5" y="390" width="20" height="20" as="geometry" />
        </mxCell>
        <mxCell id="ipbtVaRbRTqN4IjZGnwu-40" value="" style="shape=orEllipse;perimeter=ellipsePerimeter;whiteSpace=wrap;html=1;backgroundOutline=1;" vertex="1" parent="1">
          <mxGeometry x="429.5" y="430" width="20" height="20" as="geometry" />
        </mxCell>
        <mxCell id="ipbtVaRbRTqN4IjZGnwu-41" value="" style="shape=orEllipse;perimeter=ellipsePerimeter;whiteSpace=wrap;html=1;backgroundOutline=1;" vertex="1" parent="1">
          <mxGeometry x="430" y="650" width="20" height="20" as="geometry" />
        </mxCell>
        <mxCell id="ipbtVaRbRTqN4IjZGnwu-42" value="" style="shape=orEllipse;perimeter=ellipsePerimeter;whiteSpace=wrap;html=1;backgroundOutline=1;" vertex="1" parent="1">
          <mxGeometry x="430" y="610" width="20" height="20" as="geometry" />
        </mxCell>
        <mxCell id="ipbtVaRbRTqN4IjZGnwu-43" value="" style="shape=orEllipse;perimeter=ellipsePerimeter;whiteSpace=wrap;html=1;backgroundOutline=1;" vertex="1" parent="1">
          <mxGeometry x="430.5" y="570" width="20" height="20" as="geometry" />
        </mxCell>
        <mxCell id="ipbtVaRbRTqN4IjZGnwu-44" value="" style="shape=orEllipse;perimeter=ellipsePerimeter;whiteSpace=wrap;html=1;backgroundOutline=1;" vertex="1" parent="1">
          <mxGeometry x="430.5" y="530" width="20" height="20" as="geometry" />
        </mxCell>
        <mxCell id="ipbtVaRbRTqN4IjZGnwu-46" value="" style="endArrow=none;html=1;rounded=0;exitX=1;exitY=0.5;exitDx=0;exitDy=0;entryX=0;entryY=0.5;entryDx=0;entryDy=0;" edge="1" parent="1" target="ipbtVaRbRTqN4IjZGnwu-28">
          <mxGeometry width="50" height="50" relative="1" as="geometry">
            <mxPoint x="270" y="580" as="sourcePoint" />
            <mxPoint x="510" y="579.5" as="targetPoint" />
          </mxGeometry>
        </mxCell>
        <mxCell id="ipbtVaRbRTqN4IjZGnwu-47" value="" style="endArrow=none;html=1;rounded=0;exitX=1;exitY=0.5;exitDx=0;exitDy=0;entryX=0;entryY=0.5;entryDx=0;entryDy=0;" edge="1" parent="1" target="ipbtVaRbRTqN4IjZGnwu-29">
          <mxGeometry width="50" height="50" relative="1" as="geometry">
            <mxPoint x="270" y="620" as="sourcePoint" />
            <mxPoint x="510" y="619.5" as="targetPoint" />
          </mxGeometry>
        </mxCell>
        <mxCell id="ipbtVaRbRTqN4IjZGnwu-50" value="" style="endArrow=none;html=1;rounded=0;exitX=1;exitY=0.5;exitDx=0;exitDy=0;entryX=0;entryY=0.5;entryDx=0;entryDy=0;" edge="1" parent="1" target="ipbtVaRbRTqN4IjZGnwu-30">
          <mxGeometry width="50" height="50" relative="1" as="geometry">
            <mxPoint x="270" y="660" as="sourcePoint" />
            <mxPoint x="510" y="659.5" as="targetPoint" />
          </mxGeometry>
        </mxCell>
        <mxCell id="ipbtVaRbRTqN4IjZGnwu-27" value="" style="shape=sumEllipse;perimeter=ellipsePerimeter;whiteSpace=wrap;html=1;backgroundOutline=1;" vertex="1" parent="1">
          <mxGeometry x="386" y="533" width="16" height="16" as="geometry" />
        </mxCell>
        <mxCell id="ipbtVaRbRTqN4IjZGnwu-31" value="`W_8^4`" style="text;html=1;align=center;verticalAlign=middle;whiteSpace=wrap;rounded=0;fontSize=12;" vertex="1" parent="1">
          <mxGeometry x="365" y="511" width="60" height="30" as="geometry" />
        </mxCell>
        <mxCell id="ipbtVaRbRTqN4IjZGnwu-32" value="`W_8^4`" style="text;html=1;align=center;verticalAlign=middle;whiteSpace=wrap;rounded=0;fontSize=12;" vertex="1" parent="1">
          <mxGeometry x="365" y="548" width="60" height="30" as="geometry" />
        </mxCell>
        <mxCell id="ipbtVaRbRTqN4IjZGnwu-33" value="`W_8^4`" style="text;html=1;align=center;verticalAlign=middle;whiteSpace=wrap;rounded=0;fontSize=12;" vertex="1" parent="1">
          <mxGeometry x="365" y="588" width="60" height="30" as="geometry" />
        </mxCell>
        <mxCell id="ipbtVaRbRTqN4IjZGnwu-34" value="`W_8^4`" style="text;html=1;align=center;verticalAlign=middle;whiteSpace=wrap;rounded=0;fontSize=12;" vertex="1" parent="1">
          <mxGeometry x="365" y="628" width="60" height="30" as="geometry" />
        </mxCell>
        <mxCell id="ipbtVaRbRTqN4IjZGnwu-28" value="" style="shape=sumEllipse;perimeter=ellipsePerimeter;whiteSpace=wrap;html=1;backgroundOutline=1;" vertex="1" parent="1">
          <mxGeometry x="386" y="572" width="16" height="16" as="geometry" />
        </mxCell>
        <mxCell id="ipbtVaRbRTqN4IjZGnwu-29" value="" style="shape=sumEllipse;perimeter=ellipsePerimeter;whiteSpace=wrap;html=1;backgroundOutline=1;" vertex="1" parent="1">
          <mxGeometry x="386" y="611.5" width="16" height="16" as="geometry" />
        </mxCell>
        <mxCell id="ipbtVaRbRTqN4IjZGnwu-30" value="" style="shape=sumEllipse;perimeter=ellipsePerimeter;whiteSpace=wrap;html=1;backgroundOutline=1;" vertex="1" parent="1">
          <mxGeometry x="386" y="652" width="16" height="16" as="geometry" />
        </mxCell>
      </root>
    </mxGraphModel>
  </diagram>
</mxfile>
